<?xml version="1.0" encoding="UTF-8"?>
<svg width="22px" height="28px" viewBox="0 0 22 28" version="1.1" xmlns="http://www.w3.org/2000/svg" xmlns:xlink="http://www.w3.org/1999/xlink">
    <!-- Generator: Sketch 51.2 (57519) - http://www.bohemiancoding.com/sketch -->
    <title>ToGo_color</title>
    <desc>Created with Sketch.</desc>
    <defs></defs>
    <g id="Page-1" stroke="none" stroke-width="1" fill="none" fill-rule="evenodd">
        <g id="Artboard" transform="translate(-275.000000, -96.000000)">
            <g id="CoffeeIcons" transform="translate(103.000000, 92.000000)">
                <g id="color">
                    <g id="ToGo_" transform="translate(172.000000, 4.000000)">
                        <g id="ToGo_4_" transform="translate(1.000000, 1.000000)" fill-rule="nonzero">
                            <path d="M20.1,4.3 L0.9,4.3 C0.5,4.3 0.1,3.9 0.1,3.5 L0.1,3 C0.1,2.5 0.5,2.2 0.9,2.2 L19.9,2.2 C20.4,2.2 20.7,2.6 20.7,3 L20.7,3.5 C20.7,4 20.5,4.3 20.1,4.3 Z" id="Shape" fill="#BAD7DF"></path>
                            <path d="M18.4,2.2 L2.6,2.2 C2.6,1 3.6,0 4.8,0 L16.1,0 C17.4,0 18.4,1 18.4,2.2 Z" id="Shape" fill="#9DD6C9"></path>
                            <path d="M15.4,27 L5.5,27 C5,27 4.5,26.6 4.5,26.1 L2.6,4.4 L18.4,4.4 L16.5,26.1 C16.4,26.6 16,27 15.4,27 Z" id="Shape" fill="#FDE2E1"></path>
                            <path d="M17.7,20.6 L3.6,20.6 C3.1,20.6 2.7,20.2 2.6,19.7 L1.2,10.1 C1.1,9.5 1.6,9 2.2,9 L18.9,9 C19.5,9 20,9.5 19.9,10.1 L18.7,19.7 C18.7,20.3 18.2,20.6 17.7,20.6 Z" id="Shape" fill="#9DD6C9"></path>
                            <circle id="Oval" fill="#F6F6F6" cx="10.6" cy="14.9" r="4.3"></circle>
                        </g>
                        <g id="ToGo_5_" stroke="#201009" stroke-linecap="round" stroke-linejoin="round" stroke-width="0.5">
                            <path d="M20.5,4.8 L1.4,4.8 C1,4.8 0.6,4.4 0.6,4 L0.6,3.5 C0.6,3 1,2.7 1.4,2.7 L20.4,2.7 C20.9,2.7 21.2,3.1 21.2,3.5 C21.2,3.5 21.2,3.66666667 21.2,4 C21.2,4.5 21,4.8 20.5,4.8 Z" id="Shape"></path>
                            <path d="M3.1,2.7 C3.1,1.5 4.1,0.5 5.3,0.5 L16.6,0.5 C17.8,0.5 18.8,1.5 18.8,2.7" id="Shape"></path>
                            <path d="M17.4,21.2 L16.9,26.7 C16.9,27.2 16.4,27.6 15.9,27.6 L6,27.6 C5.5,27.6 5,27.2 5,26.7 L4.5,21.2" id="Shape"></path>
                            <path d="M18.8,4.8 L18.4,9.6" id="Shape"></path>
                            <path d="M3.5,9.6 L3.1,4.8" id="Shape"></path>
                            <path d="M5.7,8.4 L5.6,7.3" id="Shape"></path>
                            <path d="M7.3,26.4 L6.9,22.6" id="Shape"></path>
                            <path d="M18.2,21.2 L4.1,21.2 C3.6,21.2 3.2,20.8 3.1,20.3 L1.7,10.7 C1.6,10.1 2.1,9.6 2.7,9.6 L19.4,9.6 C20,9.6 20.5,10.1 20.4,10.7 L19.2,20.3 C19.1,20.8 18.7,21.2 18.2,21.2 Z" id="Shape"></path>
                            <path d="M8,18.4 C7.2,17.6 6.8,16.6 6.8,15.4" id="Shape"></path>
                            <path d="M7.1,13.8 C7.7,12.2 9.3,11.1 11.1,11.1 C13.4,11.1 15.4,13 15.4,15.4 C15.4,17.8 13.5,19.7 11.1,19.7 C10.5,19.7 10,19.6 9.4,19.4" id="Shape"></path>
                        </g>
                    </g>
                </g>
            </g>
        </g>
    </g>
</svg>